<svg width="32" height="32" viewBox="0 0 32 32" fill="none" xmlns="http://www.w3.org/2000/svg">
<path d="M21.301 3.2002C21.2254 3.589 21.1877 3.98422 21.1885 4.38029C21.1885 7.93388 24.0734 10.8146 27.6322 10.8146C28.0241 10.8127 28.415 10.7751 28.8 10.7022V23.4585C28.8 28.8252 25.6344 32.0002 20.2599 32.0002H8.55418C3.16561 32.0002 0 28.8252 0 23.4585V11.77C0 6.40332 3.16561 3.2002 8.55418 3.2002H21.301ZM21.3067 12.8027C20.9938 12.8477 20.7126 13.0175 20.5272 13.2732L16.6722 18.2324L12.2826 14.7764C12.0319 14.5811 11.7131 14.4949 11.3981 14.5372C11.0831 14.5795 10.7984 14.7468 10.6083 15.0012L5.881 21.0983C5.71483 21.3055 5.62538 21.5635 5.62775 21.8289L5.6319 22.0055C5.67773 22.4695 5.99597 22.8704 6.4518 23.0143C6.96461 23.1762 7.5222 22.9719 7.8085 22.5173L11.762 17.4035L16.1516 20.8455C16.4013 21.0467 16.7222 21.138 17.0406 21.0983C17.359 21.0585 17.6476 20.8912 17.84 20.6347L22.4125 14.7342V14.7061C22.804 14.1801 22.7041 13.4384 22.1874 13.0343C21.9373 12.8413 21.6195 12.7577 21.3067 12.8027Z" fill="#2AA08A"/>
<path opacity="0.4" d="M28 8C30.2091 8 32 6.20914 32 4C32 1.79086 30.2091 0 28 0C25.7909 0 24 1.79086 24 4C24 6.20914 25.7909 8 28 8Z" fill="#2AA08A"/>
</svg>
