<svg width="26" height="26" viewBox="0 0 26 26" fill="none" xmlns="http://www.w3.org/2000/svg">
<path fill-rule="evenodd" clip-rule="evenodd" d="M10.2401 16.1928L10.3949 16.1928L10.7381 16.1938C13.6526 16.2094 20.4802 16.4743 20.4802 20.9781C20.4802 25.1538 14.8728 25.7118 10.511 25.7329L9.7421 25.7325C6.82758 25.7169 0 25.4521 0 20.9495C0 16.6855 5.8435 16.1928 10.2401 16.1928ZM10.2401 18.1428C4.7398 18.1428 1.95 19.0879 1.95 20.9495C1.95 22.8293 4.7398 23.7835 10.2401 23.7835C15.7404 23.7835 18.5302 22.8384 18.5302 20.9781C18.5302 19.0957 15.7404 18.1428 10.2401 18.1428ZM22.3653 7.69431C22.9035 7.69431 23.3403 8.13111 23.3403 8.66931L23.3402 10.2999L25.025 10.3009C25.5632 10.3009 26 10.7377 26 11.2759C26 11.8141 25.5632 12.2509 25.025 12.2509L23.3402 12.2499L23.3403 13.8836C23.3403 14.4218 22.9035 14.8586 22.3653 14.8586C21.8271 14.8586 21.3903 14.4218 21.3903 13.8836L21.3902 12.2499L19.708 12.2509C19.1698 12.2509 18.733 11.8141 18.733 11.2759C18.733 10.7377 19.1698 10.3009 19.708 10.3009L21.3902 10.2999L21.3903 8.66931C21.3903 8.13111 21.8271 7.69431 22.3653 7.69431ZM10.2401 0C14.053 0 17.1535 3.1018 17.1535 6.9134C17.1535 10.725 14.053 13.8268 10.2401 13.8268H10.1998C8.3551 13.8203 6.6261 13.0962 5.33 11.791C4.0326 10.4845 3.3215 8.7503 3.32796 6.9095C3.32796 3.1018 6.4285 0 10.2401 0ZM10.2401 1.95C7.5049 1.95 5.27796 4.1769 5.27796 6.9134C5.2728 8.2381 5.7824 9.4796 6.7119 10.4169C7.6427 11.3529 8.8829 11.8716 10.2037 11.8768L10.2401 12.8401V11.8768C12.9766 11.8768 15.2035 9.6499 15.2035 6.9134C15.2035 4.1769 12.9766 1.95 10.2401 1.95Z" fill="#30A38D"/>
</svg>
