<svg width="26" height="30" viewBox="0 0 26 30" fill="none" xmlns="http://www.w3.org/2000/svg">
<path fill-rule="evenodd" clip-rule="evenodd" d="M12.5127 0C19.4051 0 25.0127 5.65 25.0127 12.5955C25.0127 21.1333 15.2309 29.5455 12.5127 29.5455C9.79451 29.5455 0.0126953 21.1333 0.0126953 12.5955C0.0126953 5.65 5.62027 0 12.5127 0ZM12.5127 2.27273C6.8733 2.27273 2.28542 6.90454 2.28542 12.5955C2.28542 19.8364 10.8066 26.8909 12.5127 27.2667C14.2188 26.8894 22.74 19.8348 22.74 12.5955C22.74 6.90454 18.1521 2.27273 12.5127 2.27273ZM12.5142 7.57576C15.2294 7.57576 17.4385 9.78485 17.4385 12.5015C17.4385 15.2167 15.2294 17.4242 12.5142 17.4242C9.79906 17.4242 7.58997 15.2167 7.58997 12.5015C7.58997 9.78485 9.79906 7.57576 12.5142 7.57576ZM12.5142 9.84848C11.0521 9.84848 9.8627 11.0379 9.8627 12.5015C9.8627 13.9636 11.0521 15.1515 12.5142 15.1515C13.9763 15.1515 15.1657 13.9636 15.1657 12.5015C15.1657 11.0379 13.9763 9.84848 12.5142 9.84848Z" fill="black"/>
</svg>
