<svg width="135" height="25" viewBox="0 0 135 25" fill="none" xmlns="http://www.w3.org/2000/svg">
<path d="M12.1875 17.3594V1.25H15.1875V17.3594C15.1875 18.8594 14.8802 20.125 14.2656 21.1562C13.651 22.1875 12.8021 22.974 11.7188 23.5156C10.6458 24.0469 9.41146 24.3125 8.01562 24.3125C6.61979 24.3125 5.38021 24.0729 4.29688 23.5938C3.21354 23.1146 2.36458 22.3854 1.75 21.4062C1.13542 20.4271 0.828125 19.1927 0.828125 17.7031H3.84375C3.84375 18.6615 4.02083 19.4479 4.375 20.0625C4.72917 20.6771 5.21875 21.1302 5.84375 21.4219C6.47917 21.7135 7.20312 21.8594 8.01562 21.8594C8.80729 21.8594 9.51562 21.6927 10.1406 21.3594C10.776 21.0156 11.276 20.5104 11.6406 19.8438C12.0052 19.1667 12.1875 18.3385 12.1875 17.3594ZM33.3125 1.25H36.3125V16.6406C36.3125 18.349 35.9323 19.7708 35.1719 20.9062C34.4115 22.0417 33.401 22.8958 32.1406 23.4688C30.8906 24.0312 29.5312 24.3125 28.0625 24.3125C26.5208 24.3125 25.125 24.0312 23.875 23.4688C22.6354 22.8958 21.651 22.0417 20.9219 20.9062C20.2031 19.7708 19.8438 18.349 19.8438 16.6406V1.25H22.8281V16.6406C22.8281 17.8281 23.0469 18.8073 23.4844 19.5781C23.9219 20.349 24.5312 20.9219 25.3125 21.2969C26.1042 21.6719 27.0208 21.8594 28.0625 21.8594C29.1146 21.8594 30.0312 21.6719 30.8125 21.2969C31.6042 20.9219 32.2188 20.349 32.6562 19.5781C33.0938 18.8073 33.3125 17.8281 33.3125 16.6406V1.25ZM42 1.25H44.9219L52.375 19.7969L59.8125 1.25H62.75L53.5 24H51.2188L42 1.25ZM41.0469 1.25H43.625L44.0469 15.125V24H41.0469V1.25ZM61.1094 1.25H63.6875V24H60.6875V15.125L61.1094 1.25ZM77.6875 3.26562L70.1562 24H67.0781L75.75 1.25H77.7344L77.6875 3.26562ZM84 24L76.4531 3.26562L76.4062 1.25H78.3906L87.0938 24H84ZM83.6094 15.5781V18.0469H70.8281V15.5781H83.6094ZM89.75 22.4688C89.75 21.9792 89.901 21.5677 90.2031 21.2344C90.5156 20.8906 90.9635 20.7188 91.5469 20.7188C92.1302 20.7188 92.5729 20.8906 92.875 21.2344C93.1875 21.5677 93.3438 21.9792 93.3438 22.4688C93.3438 22.9479 93.1875 23.3542 92.875 23.6875C92.5729 24.0208 92.1302 24.1875 91.5469 24.1875C90.9635 24.1875 90.5156 24.0208 90.2031 23.6875C89.901 23.3542 89.75 22.9479 89.75 22.4688ZM101.594 1.25V24H98.5781V1.25H101.594ZM115.328 1.25L105.875 11.8594L100.562 17.375L100.062 14.1562L104.062 9.75L111.703 1.25H115.328ZM112.422 24L104 12.9062L105.797 10.5156L116.016 24H112.422ZM134.984 12.6719V21C134.703 21.4167 134.255 21.8854 133.641 22.4062C133.026 22.9167 132.177 23.3646 131.094 23.75C130.021 24.125 128.635 24.3125 126.938 24.3125C125.552 24.3125 124.276 24.0729 123.109 23.5938C121.953 23.1042 120.948 22.3958 120.094 21.4688C119.25 20.5312 118.594 19.3958 118.125 18.0625C117.667 16.7188 117.438 15.1979 117.438 13.5V11.7344C117.438 10.0365 117.635 8.52083 118.031 7.1875C118.438 5.85417 119.031 4.72396 119.812 3.79688C120.594 2.85938 121.552 2.15104 122.688 1.67188C123.823 1.18229 125.125 0.9375 126.594 0.9375C128.333 0.9375 129.786 1.23958 130.953 1.84375C132.13 2.4375 133.047 3.26042 133.703 4.3125C134.37 5.36458 134.797 6.5625 134.984 7.90625H131.969C131.833 7.08333 131.562 6.33333 131.156 5.65625C130.76 4.97917 130.193 4.4375 129.453 4.03125C128.714 3.61458 127.76 3.40625 126.594 3.40625C125.542 3.40625 124.63 3.59896 123.859 3.98438C123.089 4.36979 122.453 4.92188 121.953 5.64062C121.453 6.35938 121.078 7.22917 120.828 8.25C120.589 9.27083 120.469 10.4219 120.469 11.7031V13.5C120.469 14.8125 120.62 15.9844 120.922 17.0156C121.234 18.0469 121.677 18.9271 122.25 19.6562C122.823 20.375 123.505 20.9219 124.297 21.2969C125.099 21.6719 125.984 21.8594 126.953 21.8594C128.026 21.8594 128.896 21.7708 129.562 21.5938C130.229 21.4062 130.75 21.1875 131.125 20.9375C131.5 20.6771 131.786 20.4323 131.984 20.2031V15.1094H126.719V12.6719H134.984Z" fill="url(#paint0_diamond_98_1476)"/>
<defs>
<radialGradient id="paint0_diamond_98_1476" cx="0" cy="0" r="1" gradientUnits="userSpaceOnUse" gradientTransform="translate(79.6402 21.75) rotate(-3.67657) scale(58.4802 162.166)">
<stop stop-color="#5AD986"/>
<stop offset="1" stop-color="#36A78F"/>
</radialGradient>
</defs>
</svg>
