<svg width="26" height="23" viewBox="0 0 26 23" fill="none" xmlns="http://www.w3.org/2000/svg">
<path fill-rule="evenodd" clip-rule="evenodd" d="M18.4823 0C22.41 0 25.3717 3.20467 25.3717 7.45436V15.5551C25.3717 17.7301 24.6026 19.6951 23.205 21.0892C21.9512 22.3383 20.3246 23 18.5012 23H6.87967C5.05972 23 3.43439 22.3395 2.17941 21.0892C0.781721 19.6951 0.0126953 17.7301 0.0126953 15.5551V7.45436C0.0126953 3.20467 2.97439 0 6.90208 0H18.4823ZM18.4823 1.76923H6.90208C3.93567 1.76923 1.78193 4.16005 1.78193 7.45436V15.5551C1.78193 17.2571 2.36695 18.7774 3.42849 19.8354C4.34377 20.7495 5.53859 21.2308 6.88321 21.2308H18.4823C18.4846 21.2284 18.4941 21.2308 18.5012 21.2308C19.847 21.2308 21.0406 20.7495 21.9559 19.8354C23.0186 18.7774 23.6024 17.2571 23.6024 15.5551V7.45436C23.6024 4.16005 21.4487 1.76923 18.4823 1.76923ZM20.3412 7.22884C20.649 7.60746 20.5912 8.16417 20.2126 8.4732L14.971 12.7335C14.3081 13.2596 13.5155 13.5226 12.724 13.5226C11.935 13.5226 11.1482 13.2619 10.4901 12.7406L5.20008 8.47556C4.81911 8.16889 4.76013 7.61099 5.06562 7.2312C5.37346 6.85258 5.93018 6.79243 6.30998 7.09792L11.5953 11.3582C12.2593 11.8843 13.1946 11.8843 13.8634 11.3535L19.0956 7.10028C19.4754 6.79007 20.0321 6.84905 20.3412 7.22884Z" fill="black"/>
</svg>
