<svg width="40" height="42" viewBox="0 0 40 42" fill="none" xmlns="http://www.w3.org/2000/svg">
<path fill-rule="evenodd" clip-rule="evenodd" d="M19.5734 0C24.8011 0 29.1197 3.98332 29.6522 9.07784L29.8008 9.0796C32.7008 9.0796 36.2268 11.0056 37.4168 16.4076L38.9948 28.6216C39.5608 32.5636 38.8528 35.7256 36.8868 37.9936C34.9308 40.2496 31.8348 41.4436 27.9328 41.4436H11.2368C6.95078 41.4436 3.96478 40.3936 2.10678 38.2356C0.24078 36.0716 -0.38322 32.8256 0.25278 28.5896L1.80478 16.5376C2.82478 11.0116 6.55478 9.0796 9.44278 9.0796C9.6921 6.78055 10.7288 4.5934 12.3734 2.954C14.2634 1.076 16.8694 0 19.5314 0H19.5734ZM29.8008 12.0796H9.44278C8.56078 12.0796 5.61278 12.4356 4.76678 17.0036L3.22278 29.0036C2.72078 32.3696 3.10878 34.8056 4.37878 36.2796C5.63278 37.7356 7.87678 38.4436 11.2368 38.4436H27.9328C30.0288 38.4436 32.8908 38.0256 34.6188 36.0296C35.9908 34.4476 36.4628 32.0916 36.0228 29.0256L34.4648 16.9216C33.8008 13.9396 32.0488 12.0796 29.8008 12.0796ZM25.4064 17.6478C26.2344 17.6478 26.9524 18.3198 26.9524 19.1478C26.9524 19.9758 26.3264 20.6478 25.4984 20.6478H25.4064C24.5784 20.6478 23.9064 19.9758 23.9064 19.1478C23.9064 18.3198 24.5784 17.6478 25.4064 17.6478ZM13.7462 17.6478C14.5742 17.6478 15.2922 18.3198 15.2922 19.1478C15.2922 19.9758 14.6642 20.6478 13.8362 20.6478H13.7462C12.9182 20.6478 12.2462 19.9758 12.2462 19.1478C12.2462 18.3198 12.9182 17.6478 13.7462 17.6478ZM19.5674 3H19.5374C17.6554 3 15.8214 3.758 14.4914 5.08C13.408 6.15853 12.6994 7.57639 12.4702 9.07867L26.6288 9.07923C26.1148 5.64276 23.1432 3 19.5674 3Z" fill="#2AA08A"/>
</svg>
