<svg width="32" height="30" viewBox="0 0 32 30" fill="none" xmlns="http://www.w3.org/2000/svg">
<path d="M12 19.7617C5.52676 19.7617 0 20.783 0 24.8634C0 28.9423 5.49313 30.0004 12 30.0004C18.4716 30.0004 24 28.9791 24 24.8987C24 20.8182 18.5069 19.7617 12 19.7617Z" fill="#36A78F"/>
<path opacity="0.4" d="M11.9998 15.8751C16.4071 15.8751 19.94 12.3437 19.94 7.93834C19.94 3.53295 16.4071 0 11.9998 0C7.59247 0 4.05957 3.53295 4.05957 7.93834C4.05957 12.3437 7.59247 15.8751 11.9998 15.8751Z" fill="#36A78F"/>
<path d="M25.9076 14.9998C25.6543 15.0011 25.401 14.908 25.2057 14.7166L22.6938 12.2522C22.3059 11.8694 22.302 11.2481 22.6859 10.8627C23.0698 10.476 23.6964 10.472 24.0856 10.8535L25.8931 12.6258L30.3061 8.1872C30.6913 7.8005 31.318 7.79657 31.7058 8.17803C32.095 8.5608 32.099 9.18346 31.7151 9.56754L26.6055 14.7074C26.4129 14.9015 26.1609 14.9985 25.9076 14.9998Z" fill="#AFDCD2"/>
</svg>
