<svg width="22" height="22" viewBox="0 0 22 22" fill="none" xmlns="http://www.w3.org/2000/svg">
<path opacity="0.4" d="M10.2946 1.04053H6.32465C3.05976 1.04053 1.0127 3.35197 1.0127 6.62429V15.4517C1.0127 18.724 3.0502 21.0355 6.32465 21.0355H15.6936C18.9691 21.0355 21.0066 18.724 21.0066 15.4517V11.175" stroke="black" stroke-width="1.5" stroke-linecap="round" stroke-linejoin="round"/>
<path fill-rule="evenodd" clip-rule="evenodd" d="M7.46542 9.67506L15.3999 1.74057C16.3884 0.753142 17.9906 0.753142 18.9791 1.74057L20.2712 3.03273C21.2597 4.02122 21.2597 5.62447 20.2712 6.6119L12.2985 14.5846C11.8664 15.0168 11.2803 15.2599 10.6687 15.2599H6.69141L6.79121 11.2465C6.80608 10.6561 7.04709 10.0934 7.46542 9.67506Z" stroke="black" stroke-width="1.5" stroke-linecap="round" stroke-linejoin="round"/>
<path d="M14.1943 2.96631L19.0423 7.81428" stroke="black" stroke-width="1.5" stroke-linecap="round" stroke-linejoin="round"/>
</svg>
