<svg width="26" height="26" viewBox="0 0 26 26" fill="none" xmlns="http://www.w3.org/2000/svg">
<path fill-rule="evenodd" clip-rule="evenodd" d="M22.2419 22.1724C22.2419 22.17 22.1793 22.2318 22.1047 22.3096C21.822 22.6084 21.2338 23.2272 19.9864 23.2498C18.2416 23.2824 14.9866 22.1776 9.3901 16.7253C3.82075 11.2982 2.61734 8.07846 2.59433 6.32987L2.594 6.30427C2.58369 5.05677 3.18799 4.45366 3.47808 4.16202C3.56716 4.07304 3.63207 4.00145 3.67287 3.95091C4.87873 2.72034 5.78021 2.08649 6.36316 2.08487C6.95833 2.08563 7.67165 2.81653 8.65818 3.82679C8.97219 4.14829 9.3134 4.49748 9.69144 4.8657C10.6687 5.81998 10.5104 6.30135 10.1535 7.35977C9.66179 8.82365 8.99304 10.8326 12.1421 13.8986C15.2925 16.9696 17.2807 16.2471 18.7312 15.7182C19.7799 15.3361 20.2581 15.1615 21.239 16.1169C21.622 16.4912 21.985 16.8267 22.3184 17.1357C23.3481 18.0893 24.0925 18.7771 24.1088 19.3684L24.109 19.3782C24.1167 19.9622 23.5043 20.8777 22.2371 22.1786C22.2407 22.1748 22.2419 22.1724 22.2419 22.1724ZM0.765236 6.35272C0.805209 9.3914 3.27659 13.3213 8.11333 18.0348C12.9698 22.7663 16.9757 25.137 20.0202 25.0787C22.0321 25.0412 23.0486 23.9729 23.4299 23.5715C23.4553 23.5504 23.5238 23.4788 23.5479 23.4541C25.2747 21.6825 25.9665 20.494 25.9378 19.3212C25.9014 17.9594 24.8693 17.0034 23.5618 15.7937C23.2383 15.4942 22.8865 15.1696 22.5158 14.8074C20.7121 13.0505 19.2665 13.5769 18.1061 13.9995C16.8401 14.4601 15.7477 14.8586 13.4177 12.5891C11.0876 10.3172 11.4573 9.21469 11.8882 7.94187C12.2801 6.76957 12.7707 5.31424 10.967 3.55494C10.6013 3.19875 10.2712 2.86039 9.96586 2.54853C8.71599 1.26733 7.72822 0.255876 6.36228 0.256547C5.19757 0.257455 4.02041 0.980302 2.296 2.74943L2.8305 3.51562L2.18295 2.87044C1.79173 3.2622 0.749278 4.30524 0.764787 6.31857L0.765236 6.35272Z" fill="black"/>
</svg>
