<svg width="19" height="22" viewBox="0 0 19 22" fill="none" xmlns="http://www.w3.org/2000/svg">
<path d="M15.2265 21.1749C14.3425 21.1749 13.5918 20.8666 12.9747 20.25C12.3575 19.6333 12.0489 18.8833 12.0489 18C12.0489 17.8833 12.0572 17.7583 12.0739 17.625C12.0906 17.4916 12.1156 17.375 12.149 17.275L5.36843 13.35C5.08486 13.6 4.7556 13.8 4.38062 13.95C4.00498 14.1 3.61699 14.175 3.21667 14.175C2.33261 14.175 1.58199 13.8666 0.964821 13.25C0.347649 12.6333 0.0390625 11.8833 0.0390625 11C0.0390625 10.1166 0.347649 9.36662 0.964821 8.74995C1.58199 8.13328 2.33261 7.82495 3.21667 7.82495C3.61699 7.82495 4.00498 7.89995 4.38062 8.04995C4.7556 8.19995 5.08486 8.39995 5.36843 8.64995L12.149 4.72495C12.1156 4.62495 12.0906 4.50828 12.0739 4.37495C12.0572 4.24162 12.0489 4.11662 12.0489 3.99995C12.0489 3.11662 12.3575 2.36662 12.9747 1.74995C13.5918 1.13328 14.3425 0.824951 15.2265 0.824951C16.1106 0.824951 16.8612 1.13328 17.4784 1.74995C18.0955 2.36662 18.4041 3.11662 18.4041 3.99995C18.4041 4.88328 18.0955 5.63328 17.4784 6.24995C16.8612 6.86662 16.1106 7.17495 15.2265 7.17495C14.8262 7.17495 14.4385 7.10395 14.0636 6.96195C13.6879 6.82062 13.3583 6.61662 13.0747 6.34995L6.29419 10.275C6.32755 10.375 6.35257 10.4916 6.36925 10.625C6.38593 10.7583 6.39427 10.8833 6.39427 11C6.39427 11.1166 6.38593 11.2416 6.36925 11.375C6.35257 11.5083 6.32755 11.625 6.29419 11.725L13.0747 15.65C13.3583 15.3833 13.6879 15.1793 14.0636 15.038C14.4385 14.896 14.8262 14.825 15.2265 14.825C16.1106 14.825 16.8612 15.1333 17.4784 15.75C18.0955 16.3666 18.4041 17.1166 18.4041 18C18.4041 18.8833 18.0955 19.6333 17.4784 20.25C16.8612 20.8666 16.1106 21.1749 15.2265 21.1749ZM15.2265 4.99995C15.5101 4.99995 15.7476 4.90428 15.9391 4.71295C16.1313 4.52095 16.2273 4.28328 16.2273 3.99995C16.2273 3.71662 16.1313 3.47895 15.9391 3.28695C15.7476 3.09562 15.5101 2.99995 15.2265 2.99995C14.9429 2.99995 14.7054 3.09562 14.5139 3.28695C14.3218 3.47895 14.2257 3.71662 14.2257 3.99995C14.2257 4.28328 14.3218 4.52095 14.5139 4.71295C14.7054 4.90428 14.9429 4.99995 15.2265 4.99995ZM3.21667 12C3.50023 12 3.73809 11.904 3.93025 11.712C4.12174 11.5206 4.21749 11.2833 4.21749 11C4.21749 10.7166 4.12174 10.479 3.93025 10.287C3.73809 10.0956 3.50023 9.99995 3.21667 9.99995C2.9331 9.99995 2.69524 10.0956 2.50308 10.287C2.31159 10.479 2.21585 10.7166 2.21585 11C2.21585 11.2833 2.31159 11.5206 2.50308 11.712C2.69524 11.904 2.9331 12 3.21667 12ZM15.2265 19C15.5101 19 15.7476 18.9039 15.9391 18.712C16.1313 18.5206 16.2273 18.2833 16.2273 18C16.2273 17.7166 16.1313 17.4793 15.9391 17.288C15.7476 17.096 15.5101 17 15.2265 17C14.9429 17 14.7054 17.096 14.5139 17.288C14.3218 17.4793 14.2257 17.7166 14.2257 18C14.2257 18.2833 14.3218 18.5206 14.5139 18.712C14.7054 18.9039 14.9429 19 15.2265 19Z" fill="black"/>
</svg>
