<svg width="29" height="29" viewBox="0 0 29 29" fill="none" xmlns="http://www.w3.org/2000/svg">
<path opacity="0.4" d="M20.793 0H8.2215C3.306 0 0 3.451 0 8.584V20.4305C0 25.549 3.306 29 8.2215 29H20.793C25.7085 29 29 25.549 29 20.4305V8.584C29 3.451 25.7085 0 20.793 0Z" fill="#2AA08A"/>
<path d="M12.7797 19.21C12.4549 19.21 12.1301 19.0867 11.8821 18.8388L8.44126 15.3979C7.94536 14.902 7.94536 14.0987 8.44126 13.6043C8.93716 13.1084 9.73901 13.1069 10.2349 13.6028L12.7797 16.1476L18.7653 10.162C19.2612 9.66606 20.063 9.66606 20.5589 10.162C21.0548 10.6579 21.0548 11.4612 20.5589 11.9571L13.6772 18.8388C13.4293 19.0867 13.1045 19.21 12.7797 19.21Z" fill="#2AA08A"/>
</svg>
